<svg id="Capa_1" data-name="Capa 1" xmlns="http://www.w3.org/2000/svg" viewBox="0 0 631.33 249.03"><rect x="0.5" y="0.5" width="630.33" height="248.03" style="fill:#9a6023"/><rect x="69.62" y="0.5" width="491.72" height="248.03" style="fill:#528b83"/><path d="M216.3,33.26a23.72,23.72,0,0,0-22.4-15.83A23.57,23.57,0,0,0,186,18.78a23.71,23.71,0,0,0-15.84,22.41V96.63h6A9.88,9.88,0,0,0,186,86.75V63.6A23.77,23.77,0,0,0,216.3,33.26ZM193.9,49.11a7.93,7.93,0,1,1,7.92-7.92A7.93,7.93,0,0,1,193.9,49.11Z" transform="translate(0.12 0.5)"/><path d="M294.72,64.39a7.92,7.92,0,0,0-7.92,7.92,7.75,7.75,0,0,1-8.06,7.91A8.27,8.27,0,0,1,271,71.88V41a23.76,23.76,0,1,0-47.52,0V84.73a11.34,11.34,0,0,0,11.33,11.34h4.51v-26h15.84v2.18a23.36,23.36,0,0,0,1.4,8A24.13,24.13,0,0,0,271,94.64a23.77,23.77,0,0,0,8.11,1.43,23.19,23.19,0,0,0,7.73-1.31,23.77,23.77,0,0,0,14.46-14.53,24.25,24.25,0,0,0,1.38-8.07V64.39ZM239.28,54.21v-13A8.07,8.07,0,0,1,246.83,33,7.92,7.92,0,0,1,255.12,41V54.21Z" transform="translate(0.12 0.5)"/><path d="M297.21,61.46a1.68,1.68,0,0,1-2.62.07,2,2,0,0,1-.2-.3C294,60,293,59.65,291.9,59.42a3.09,3.09,0,0,1-1-.36,1.61,1.61,0,0,1-.17-2.53,7,7,0,0,1,5-1.64,2.3,2.3,0,0,1,1.45.86C298.06,56.92,298.06,60.23,297.21,61.46Z" transform="translate(0.12 0.5)"/><path d="M291.74,50.41a1.38,1.38,0,0,1,2.47,0,3,3,0,0,1-.42,3.73,1.49,1.49,0,0,1-2.29-.4A3.06,3.06,0,0,1,291.74,50.41Z" transform="translate(0.12 0.5)"/><path d="M296,49.81a8.9,8.9,0,0,1,.85-.8,1.24,1.24,0,0,1,1.89.91,3.15,3.15,0,0,1-.75,2.65,3.87,3.87,0,0,1-.64.64,1.11,1.11,0,0,1-1.95-.6A3.45,3.45,0,0,1,296,49.81Z" transform="translate(0.12 0.5)"/><path d="M298.53,52.94a3.88,3.88,0,0,1,2.24-1.54,1,1,0,0,1,1.24.75c.43,1.49-1.53,3.6-3.06,3.31a1.09,1.09,0,0,1-.89-1.53A9.39,9.39,0,0,1,298.53,52.94Z" transform="translate(0.12 0.5)"/><path d="M298.82,56.8a3.14,3.14,0,0,1,2.78-.94,1.1,1.1,0,0,1,.88,1.67,3,3,0,0,1-3.06,1.83C298.37,59.27,298,58.06,298.82,56.8Z" transform="translate(0.12 0.5)"/><path d="M299.63,39.67a1.64,1.64,0,0,1-.22,2.59,1.23,1.23,0,0,1-.38.19c-1.18.2-1.63,1.08-2,2.06a1.22,1.22,0,0,0-.07.17c-.25.85-.7,1.5-1.66,1.51a1.89,1.89,0,0,1-1.79-1.4,9,9,0,0,1-.67-4.1,2,2,0,0,1,1-1.58A6.31,6.31,0,0,1,299.63,39.67Z" transform="translate(0.12 0.5)"/><path d="M292.19,43.3a1.44,1.44,0,0,1-1.1,1.17,3.08,3.08,0,0,1-3.46-1.21,1.65,1.65,0,0,1-.24-.79,1.55,1.55,0,0,1-.82-1.4,1.51,1.51,0,0,0,1,.85,1.8,1.8,0,0,1,.51-.47,2.79,2.79,0,0,1,3.58.43A1.32,1.32,0,0,1,292.19,43.3Z" transform="translate(0.12 0.5)"/><path d="M290.76,40.32a3.22,3.22,0,0,1-2.95-1.06,5,5,0,0,1-.47-.64.93.93,0,0,1,0-1.21,1.55,1.55,0,0,1-.58-1.54s.05.63,1,1.11a1.49,1.49,0,0,1,1.28-.27,3.71,3.71,0,0,1,2.66,2.09A1.06,1.06,0,0,1,290.76,40.32Z" transform="translate(0.12 0.5)"/><path d="M297.26,30.09a1.68,1.68,0,0,1-2.62.07,1.37,1.37,0,0,1-.19-.3,2.82,2.82,0,0,0-2.5-1.81,3.18,3.18,0,0,1-1-.36,1.61,1.61,0,0,1-.17-2.53,7,7,0,0,1,4.95-1.64,2.35,2.35,0,0,1,1.45.86C298.11,25.55,298.11,28.87,297.26,30.09Z" transform="translate(0.12 0.5)"/><path d="M291.79,19a1.38,1.38,0,0,1,2.47,0,3,3,0,0,1-.42,3.73,1.49,1.49,0,0,1-2.29-.4A3.08,3.08,0,0,1,291.79,19Z" transform="translate(0.12 0.5)"/><path d="M296.09,18.44a9,9,0,0,1,.85-.79,1.23,1.23,0,0,1,1.89.9,3.11,3.11,0,0,1-.75,2.65,3.87,3.87,0,0,1-.64.64,1.1,1.1,0,0,1-1.94-.6A3.41,3.41,0,0,1,296.09,18.44Z" transform="translate(0.12 0.5)"/><path d="M298.58,21.57A3.92,3.92,0,0,1,300.82,20a1,1,0,0,1,1.24.75c.43,1.49-1.53,3.6-3.06,3.31a1.09,1.09,0,0,1-.89-1.53A9.39,9.39,0,0,1,298.58,21.57Z" transform="translate(0.12 0.5)"/><path d="M298.87,25.43a3.15,3.15,0,0,1,2.78-.94,1.1,1.1,0,0,1,.88,1.67A3,3,0,0,1,299.47,28C298.43,27.9,298,26.69,298.87,25.43Z" transform="translate(0.12 0.5)"/><path d="M294,36.63a1.31,1.31,0,0,1-.58,1.26,1.15,1.15,0,0,1-1.3-.09,3.72,3.72,0,0,1-1.95-2.58,1.38,1.38,0,0,1,.13-1c-.56-.87-1.18-.88-1.21-.88a1.51,1.51,0,0,1,1.69.53,1.4,1.4,0,0,1,.66,0,5.17,5.17,0,0,1,1.28.5A3.71,3.71,0,0,1,294,36.63Z" transform="translate(0.12 0.5)"/><path d="M297.79,37.34a1.33,1.33,0,0,1-2,.64,3.24,3.24,0,0,1-1.18-3.49A1.16,1.16,0,0,1,295,34c-.56-.86-1.17-.88-1.2-.88a1.5,1.5,0,0,1,1.73.6,1.24,1.24,0,0,1,.81.13,6.3,6.3,0,0,1,.63.43A3,3,0,0,1,297.79,37.34Z" transform="translate(0.12 0.5)"/><text transform="translate(333.58 35.19)" style="font-size:21.034759521484375px;font-family:BerlinSansFBDemi-Bold, Berlin Sans FB Demi;font-weight:700;letter-spacing:0.13997478480762898em">Protección<tspan x="0" y="30.18" xml:space="preserve"> Animal</tspan><tspan x="0" y="60.36" xml:space="preserve"> Unida</tspan></text><rect x="316.85" y="17.33" width="4.57" height="78.65"/><rect x="0.5" y="0.5" width="630.33" height="248.03" style="fill:#fff;stroke:#211915;stroke-miterlimit:10;opacity:0.54"/></svg>